<svg xmlns="http://www.w3.org/2000/svg" xmlns:xlink="http://www.w3.org/1999/xlink" width="1080" zoomAndPan="magnify" viewBox="0 0 810 809.999993" height="1080" preserveAspectRatio="xMidYMid meet" version="1.0"><defs><clipPath id="db354121f1"><path d="M 96.617188 96.617188 L 713.382812 96.617188 L 713.382812 713.382812 L 96.617188 713.382812 Z M 96.617188 96.617188 " clip-rule="nonzero"/></clipPath><clipPath id="02db7db93e"><path d="M 405 96.617188 C 234.683594 96.617188 96.617188 234.6875 96.617188 405 C 96.617188 575.316406 234.683594 713.382812 405 713.382812 C 575.316406 713.382812 713.382812 575.316406 713.382812 405 C 713.382812 234.6875 575.316406 96.617188 405 96.617188 Z M 405 96.617188 " clip-rule="nonzero"/></clipPath><clipPath id="e95dff8650"><path d="M 223.347656 195 L 585 195 L 585 472 L 223.347656 472 Z M 223.347656 195 " clip-rule="nonzero"/></clipPath></defs><g clip-path="url(#db354121f1)"><g clip-path="url(#02db7db93e)"><path fill="#ffffff" d="M 96.617188 96.617188 L 713.382812 96.617188 L 713.382812 713.382812 L 96.617188 713.382812 Z M 96.617188 96.617188 " fill-opacity="1" fill-rule="nonzero"/></g></g><g clip-path="url(#e95dff8650)"><path fill="#092c66" d="M 565.082031 195.015625 L 243.066406 195.015625 C 232.304688 195.015625 223.546875 203.773438 223.546875 214.539062 L 223.546875 452.402344 C 223.546875 463.167969 232.304688 471.921875 243.066406 471.921875 L 394.4375 471.921875 C 397.09375 471.921875 399.246094 469.765625 399.246094 467.113281 C 399.246094 464.457031 397.09375 462.304688 394.4375 462.304688 L 243.066406 462.304688 C 237.605469 462.304688 233.164062 457.863281 233.164062 452.402344 L 233.164062 214.539062 C 233.164062 208.984375 237.511719 204.632812 243.066406 204.632812 L 565.082031 204.632812 C 570.539062 204.632812 574.984375 209.078125 574.984375 214.539062 L 574.984375 452.402344 C 574.984375 455.058594 577.136719 457.214844 579.792969 457.214844 C 582.445312 457.214844 584.601562 455.058594 584.601562 452.402344 L 584.601562 214.539062 C 584.601562 203.773438 575.84375 195.015625 565.082031 195.015625 Z M 565.082031 195.015625 " fill-opacity="1" fill-rule="nonzero"/></g><path fill="#092c66" d="M 565.839844 266.695312 C 565.839844 264.039062 563.6875 261.886719 561.03125 261.886719 L 247.070312 261.886719 C 244.417969 261.886719 242.261719 264.039062 242.261719 266.695312 C 242.261719 269.351562 244.417969 271.503906 247.070312 271.503906 L 561.03125 271.503906 C 563.6875 271.503906 565.839844 269.351562 565.839844 266.695312 Z M 565.839844 266.695312 " fill-opacity="1" fill-rule="nonzero"/><path fill="#092c66" d="M 550.8125 231.839844 C 553.464844 231.839844 555.621094 229.683594 555.621094 227.03125 C 555.621094 224.375 553.464844 222.222656 550.8125 222.222656 L 519.921875 222.222656 C 517.269531 222.222656 515.113281 224.375 515.113281 227.03125 C 515.113281 229.683594 517.269531 231.839844 519.921875 231.839844 Z M 550.8125 231.839844 " fill-opacity="1" fill-rule="nonzero"/><path fill="#092c66" d="M 259.808594 241.128906 C 267.585938 241.128906 273.910156 234.804688 273.910156 227.03125 C 273.910156 219.253906 267.585938 212.921875 259.808594 212.921875 C 252.035156 212.921875 245.707031 219.253906 245.707031 227.03125 C 245.707031 234.804688 252.035156 241.128906 259.808594 241.128906 Z M 259.808594 222.539062 C 262.285156 222.539062 264.292969 224.554688 264.292969 227.03125 C 264.292969 229.503906 262.285156 231.511719 259.808594 231.511719 C 257.335938 231.511719 255.324219 229.503906 255.324219 227.03125 C 255.324219 224.554688 257.335938 222.539062 259.808594 222.539062 Z M 259.808594 222.539062 " fill-opacity="1" fill-rule="nonzero"/><path fill="#092c66" d="M 313.714844 227.03125 C 313.714844 219.253906 307.386719 212.921875 299.609375 212.921875 C 291.835938 212.921875 285.507812 219.253906 285.507812 227.03125 C 285.507812 234.804688 291.835938 241.128906 299.609375 241.128906 C 307.386719 241.128906 313.714844 234.804688 313.714844 227.03125 Z M 295.125 227.03125 C 295.125 224.554688 297.136719 222.539062 299.609375 222.539062 C 302.085938 222.539062 304.097656 224.554688 304.097656 227.03125 C 304.097656 229.503906 302.085938 231.511719 299.609375 231.511719 C 297.136719 231.511719 295.125 229.503906 295.125 227.03125 Z M 295.125 227.03125 " fill-opacity="1" fill-rule="nonzero"/><path fill="#092c66" d="M 415.867188 389.121094 C 415.867188 391.773438 418.019531 393.929688 420.675781 393.929688 L 560.535156 393.929688 C 563.191406 393.929688 565.34375 391.773438 565.34375 389.121094 C 565.34375 386.464844 563.191406 384.3125 560.535156 384.3125 L 534.222656 384.3125 C 534.222656 384.285156 534.238281 384.265625 534.238281 384.242188 L 534.238281 297.996094 C 534.238281 292.851562 530.046875 288.660156 524.902344 288.660156 L 504.589844 288.660156 C 499.441406 288.660156 495.257812 292.851562 495.257812 297.996094 L 495.257812 327.394531 L 475.914062 327.394531 C 470.652344 327.394531 466.371094 331.675781 466.371094 336.9375 L 466.371094 352.816406 C 465.609375 352.308594 464.746094 351.9375 463.757812 351.9375 L 453.542969 351.9375 C 447.980469 351.9375 443.460938 356.464844 443.460938 362.027344 L 443.460938 384.242188 C 443.460938 384.265625 443.476562 384.285156 443.476562 384.3125 L 420.675781 384.3125 C 418.019531 384.3125 415.867188 386.464844 415.867188 389.121094 Z M 524.621094 297.996094 L 524.621094 384.242188 C 524.621094 384.265625 524.632812 384.285156 524.632812 384.3125 L 504.859375 384.3125 C 504.859375 384.285156 504.875 384.265625 504.875 384.242188 L 504.589844 298.277344 Z M 495.257812 337.011719 L 495.257812 384.242188 C 495.257812 384.265625 495.269531 384.285156 495.269531 384.3125 L 475.976562 384.3125 C 475.976562 384.285156 475.988281 384.265625 475.988281 384.242188 L 475.914062 337.011719 Z M 453.078125 384.242188 L 453.078125 362.027344 C 453.078125 361.769531 453.285156 361.558594 453.542969 361.558594 L 463.757812 361.558594 C 464.746094 361.558594 465.609375 361.1875 466.371094 360.679688 L 466.371094 384.242188 C 466.371094 384.265625 466.386719 384.285156 466.386719 384.3125 L 453.066406 384.3125 C 453.066406 384.285156 453.078125 384.265625 453.078125 384.242188 Z M 453.078125 384.242188 " fill-opacity="1" fill-rule="nonzero"/><path fill="#092c66" d="M 277.40625 339.589844 L 277.40625 346.640625 C 277.40625 363.523438 291.136719 377.253906 308.015625 377.253906 L 342.46875 377.253906 C 359.347656 377.253906 373.078125 363.523438 373.078125 346.640625 L 373.078125 339.589844 C 373.078125 322.710938 359.347656 308.980469 342.46875 308.980469 L 330.191406 308.980469 L 330.027344 295.109375 C 329.996094 292.472656 327.847656 290.359375 325.21875 290.359375 C 325.199219 290.359375 325.179688 290.359375 325.15625 290.359375 C 322.503906 290.390625 320.378906 292.566406 320.410156 295.222656 L 320.574219 308.980469 L 308.015625 308.980469 C 291.136719 308.980469 277.40625 322.710938 277.40625 339.589844 Z M 363.460938 339.589844 L 363.460938 346.640625 C 363.460938 358.21875 354.042969 367.636719 342.46875 367.636719 L 308.015625 367.636719 C 296.441406 367.636719 287.023438 358.21875 287.023438 346.640625 L 287.023438 339.589844 C 287.023438 328.015625 296.441406 318.597656 308.015625 318.597656 L 342.46875 318.597656 C 354.042969 318.597656 363.460938 328.015625 363.460938 339.589844 Z M 363.460938 339.589844 " fill-opacity="1" fill-rule="nonzero"/><path fill="#092c66" d="M 263.636719 423.457031 C 263.636719 426.113281 265.789062 428.261719 268.445312 428.261719 C 271.097656 428.261719 273.253906 426.101562 273.253906 423.445312 C 273.253906 407.371094 286.332031 394.292969 302.40625 394.292969 L 352.988281 394.292969 C 369.058594 394.292969 382.136719 407.371094 382.136719 423.445312 C 382.136719 426.101562 384.289062 428.253906 386.945312 428.253906 C 389.601562 428.253906 391.753906 426.101562 391.753906 423.445312 C 391.753906 402.070312 374.363281 384.675781 352.988281 384.675781 L 302.40625 384.675781 C 281.027344 384.675781 263.636719 402.074219 263.636719 423.457031 Z M 263.636719 423.457031 " fill-opacity="1" fill-rule="nonzero"/><path fill="#092c66" d="M 302.878906 335.164062 C 302.878906 339.355469 306.273438 342.753906 310.464844 342.753906 C 314.65625 342.753906 318.050781 339.355469 318.050781 335.164062 C 318.050781 330.972656 314.65625 327.578125 310.464844 327.578125 C 306.273438 327.578125 302.878906 330.972656 302.878906 335.164062 Z M 302.878906 335.164062 " fill-opacity="1" fill-rule="nonzero"/><path fill="#092c66" d="M 339.578125 342.410156 C 343.582031 343.652344 347.832031 341.417969 349.074219 337.414062 C 350.316406 333.410156 348.078125 329.160156 344.074219 327.917969 C 340.074219 326.675781 335.820312 328.914062 334.582031 332.917969 C 333.339844 336.917969 335.578125 341.171875 339.578125 342.410156 Z M 339.578125 342.410156 " fill-opacity="1" fill-rule="nonzero"/><path fill="#092c66" d="M 334.699219 350.273438 L 316.574219 350.273438 C 313.917969 350.273438 311.765625 352.425781 311.765625 355.082031 C 311.765625 357.738281 313.917969 359.890625 316.574219 359.890625 L 334.699219 359.890625 C 337.355469 359.890625 339.507812 357.738281 339.507812 355.082031 C 339.507812 352.425781 337.355469 350.273438 334.699219 350.273438 Z M 334.699219 350.273438 " fill-opacity="1" fill-rule="nonzero"/><path fill="#092c66" d="M 548.667969 441.347656 C 541.867188 426.519531 519.9375 426.320312 514.042969 442.386719 C 503.035156 436.898438 491.027344 442.660156 487.519531 453.363281 C 486.96875 453.097656 486.472656 452.75 485.890625 452.535156 C 481.238281 450.808594 475.949219 451.019531 471.398438 453.097656 C 468.253906 454.546875 465.757812 456.785156 463.886719 459.421875 L 449.328125 427.773438 C 444.554688 417.382812 433.042969 412.128906 423.277344 416.621094 C 413.71875 421.023438 409.882812 433.15625 414.722656 443.683594 C 422.007812 459.398438 467.433594 558.101562 473.460938 571.308594 C 474.523438 573.632812 476.410156 575.449219 478.761719 576.417969 C 502.613281 586.171875 501.539062 586.175781 503.234375 586.175781 C 508.476562 586.175781 509.921875 578.925781 505.078125 576.925781 L 482.199219 567.296875 L 455.976562 510.277344 C 455.882812 510.078125 456.011719 509.746094 456.214844 509.660156 L 548.871094 467.050781 C 549.105469 466.929688 549.386719 467.042969 549.492188 467.273438 L 576.164062 524.5 L 569.101562 547.289062 C 568.316406 549.828125 569.734375 552.519531 572.269531 553.308594 C 574.832031 554.089844 577.503906 552.675781 578.285156 550.132812 L 585.351562 527.335938 C 586.089844 524.9375 585.914062 522.363281 584.847656 520.070312 C 578.445312 506.304688 554.972656 455.167969 548.667969 441.347656 Z M 508.804688 450.488281 C 511.136719 451.347656 512.972656 453.046875 514.03125 455.253906 C 515.191406 458.570312 516.335938 460.503906 520.40625 469.550781 L 503.46875 477.335938 L 496.992188 463.253906 C 493.515625 455.722656 500.851562 447.519531 508.804688 450.488281 Z M 475.414062 461.839844 C 480.289062 459.601562 485.820312 461.957031 487.871094 466.449219 L 494.726562 481.359375 L 477.601562 489.234375 L 470.742188 474.324219 C 468.578125 469.625 470.675781 464.019531 475.414062 461.839844 Z M 452.191406 500.917969 C 452.03125 500.992188 451.925781 501.140625 451.769531 501.222656 L 423.457031 439.664062 C 420.832031 433.957031 422.554688 427.539062 427.300781 425.355469 C 432.390625 423.003906 438.167969 426.519531 440.589844 431.785156 C 442.988281 437 465.570312 486.101562 468.859375 493.253906 Z M 529.335938 465.441406 C 527.5625 461.601562 524.144531 454.121094 522.746094 451.167969 C 521.050781 444.089844 527.570312 437.789062 534.699219 440.496094 C 536.992188 441.347656 538.898438 443.113281 539.929688 445.359375 L 545.742188 458 C 543.921875 458.636719 548.945312 456.511719 529.335938 465.441406 Z M 529.335938 465.441406 " fill-opacity="1" fill-rule="nonzero"/><path fill="#092c66" d="M 413.210938 553.546875 C 462.785156 571.769531 460.480469 571.316406 462.105469 571.316406 C 467.4375 571.316406 468.792969 563.855469 463.773438 562 L 416.546875 544.527344 C 406.972656 540.992188 406.457031 527.625 415.765625 523.347656 C 418.617188 522.03125 421.722656 521.90625 424.566406 522.984375 L 432.511719 525.925781 C 434.988281 526.871094 437.765625 525.582031 438.6875 523.089844 C 439.609375 520.597656 438.339844 517.832031 435.847656 516.910156 L 427.953125 513.984375 C 422.722656 511.96875 416.96875 512.207031 411.746094 514.605469 C 394.527344 522.519531 395.777344 547.105469 413.210938 553.546875 Z M 413.210938 553.546875 " fill-opacity="1" fill-rule="nonzero"/><path fill="#092c66" d="M 521.789062 612.183594 C 522.910156 614.625 525.796875 615.640625 528.167969 614.542969 C 530.582031 613.429688 531.636719 610.574219 530.523438 608.164062 L 519.550781 584.308594 C 518.441406 581.890625 515.578125 580.820312 513.171875 581.949219 C 510.757812 583.0625 509.703125 585.917969 510.816406 588.328125 Z M 521.789062 612.183594 " fill-opacity="1" fill-rule="nonzero"/><path fill="#092c66" d="M 581.167969 590.167969 C 583.582031 589.054688 584.636719 586.199219 583.527344 583.789062 L 572.554688 559.933594 C 571.441406 557.523438 568.582031 556.445312 566.175781 557.570312 C 563.761719 558.6875 562.707031 561.542969 563.820312 563.953125 L 574.792969 587.808594 C 575.914062 590.25 578.796875 591.261719 581.167969 590.167969 Z M 581.167969 590.167969 " fill-opacity="1" fill-rule="nonzero"/><path fill="#092c66" d="M 532.890625 524.136719 L 544.960938 550.382812 C 546.066406 552.792969 548.921875 553.851562 551.339844 552.742188 C 553.753906 551.636719 554.808594 548.773438 553.699219 546.363281 L 541.628906 520.117188 C 533.515625 502.460938 508.105469 503.671875 501.453125 521.675781 C 499.4375 527.121094 499.660156 533.027344 502.089844 538.300781 L 514.164062 564.546875 C 514.96875 566.304688 516.714844 567.347656 518.535156 567.347656 C 519.207031 567.347656 519.890625 567.207031 520.539062 566.90625 C 522.953125 565.800781 524.007812 562.9375 522.898438 560.527344 L 510.824219 534.277344 C 509.472656 531.34375 509.347656 528.050781 510.472656 525.011719 C 514.183594 514.984375 528.351562 514.277344 532.890625 524.136719 Z M 532.890625 524.136719 " fill-opacity="1" fill-rule="nonzero"/></svg>