<?xml version="1.0" encoding="UTF-8"?>
<!DOCTYPE svg PUBLIC "-//W3C//DTD SVG 1.1//EN" "http://www.w3.org/Graphics/SVG/1.1/DTD/svg11.dtd">
<!-- Creator: CorelDRAW X7 -->
<svg xmlns="http://www.w3.org/2000/svg" xml:space="preserve" width="86.0791mm" height="86.0791mm" version="1.1" style="shape-rendering:geometricPrecision; text-rendering:geometricPrecision; image-rendering:optimizeQuality; fill-rule:evenodd; clip-rule:evenodd"
viewBox="0 0 136 136"
 xmlns:xlink="http://www.w3.org/1999/xlink">
 <defs>
  <style type="text/css">
   <![CDATA[
    .fil3 {fill:#1A73E8}
    .fil1 {fill:#299B49}
    .fil2 {fill:#DE362A}
    .fil0 {fill:#FBBF11}
   ]]>
  </style>
 </defs>
 <g id="Layer_x0020_1">
  <metadata id="CorelCorpID_0Corel-Layer"/>
  <g id="_2657188561248">
   <path class="fil0" d="M91 44c0,1 2,3 4,4 1,2 2,4 3,6 5,9 4,21 -1,30 0,1 -1,2 -2,4 0,1 -1,1 -1,2l-26 45c-1,1 0,1 1,1l2 0c10,0 20,-3 26,-6 15,-7 26,-18 33,-32 3,-7 6,-17 6,-27 0,-10 0,-15 -3,-24 -1,-4 -1,-5 -3,-5l-37 0c-1,0 -2,0 -2,2l0 0z"/>
   <path class="fil1" d="M0 66c0,12 1,17 5,28 1,4 4,8 6,11l4 6c5,6 12,12 19,16 6,4 16,8 24,9 1,0 1,0 2,-1 0,0 0,-1 0,-2 3,-3 19,-31 19,-32 0,-3 -9,4 -24,-3 -4,-1 -9,-5 -11,-8 -2,-2 -3,-4 -5,-7 -1,-1 -1,-1 -1,-2l-10 -18c-5,-7 -10,-16 -15,-24 0,-1 -1,-2 -1,-3 -3,-4 -4,-1 -6,4l-3 8c-2,5 -3,11 -3,18z"/>
   <path class="fil2" d="M15 26c0,2 1,2 1,4l4 7c2,3 14,23 14,24 3,1 3,-3 4,-7 2,-3 4,-6 7,-9 4,-5 11,-8 18,-10 5,0 44,0 54,0 2,0 4,0 6,0 5,0 6,1 0,-8 -12,-15 -32,-27 -52,-27 -13,0 -21,1 -32,6 -5,3 -11,7 -15,10l-5 5c-1,1 -4,4 -4,5l0 0z"/>
   <path class="fil3" d="M42 67c0,5 1,8 3,12 1,2 2,4 3,6 3,3 5,4 9,6 9,5 21,3 28,-3 2,-2 2,-2 4,-5 1,-1 2,-2 2,-4 8,-15 -2,-37 -24,-37 -13,0 -25,12 -25,25l0 0z"/>
  </g>
 </g>
</svg>
