<?xml version="1.0" encoding="UTF-8"?>
<!DOCTYPE svg PUBLIC "-//W3C//DTD SVG 1.1//EN" "http://www.w3.org/Graphics/SVG/1.1/DTD/svg11.dtd">
<!-- Creator: CorelDRAW X7 -->
<svg xmlns="http://www.w3.org/2000/svg" xml:space="preserve" width="86.0792mm" height="86.0792mm" version="1.1" style="shape-rendering:geometricPrecision; text-rendering:geometricPrecision; image-rendering:optimizeQuality; fill-rule:evenodd; clip-rule:evenodd"
viewBox="0 0 366 366"
 xmlns:xlink="http://www.w3.org/1999/xlink">
 <defs>
  <style type="text/css">
   <![CDATA[
    .fil0 {fill:#FEFEFE}
   ]]>
  </style>
 </defs>
 <g id="Layer_x0020_1">
  <metadata id="CorelCorpID_0Corel-Layer"/>
  <g id="_2061636237584">
   <path class="fil0" d="M245 117c0,4 5,8 9,13 4,5 6,9 9,14 13,26 11,56 -2,81 -2,4 -4,7 -6,11 -1,2 -2,3 -4,5l-69 120c-1,4 1,5 3,5l6 0c25,0 53,-8 70,-17 40,-19 69,-49 88,-87 8,-17 17,-46 17,-71 0,-27 0,-40 -9,-66 -3,-9 -3,-11 -9,-11l-99 0c-2,0 -4,0 -4,3z"/>
   <path class="fil0" d="M0 177c0,31 2,47 13,76 4,10 10,21 16,29l12 17c12,16 32,32 49,42 17,11 44,21 65,24 2,0 3,-1 5,-2 0,-1 2,-4 2,-5 6,-9 49,-83 49,-86 0,-10 -23,10 -64,-8 -9,-4 -24,-14 -30,-22 -5,-7 -8,-10 -13,-19 -1,-2 -2,-3 -3,-6l-27 -47c-13,-21 -26,-45 -39,-66 -1,-2 -2,-4 -4,-7 -6,-12 -9,-2 -16,11l-7 21c-4,14 -8,29 -8,48z"/>
   <path class="fil0" d="M39 70c0,4 3,6 5,11l10 18c5,7 36,63 38,64 6,3 6,-7 11,-17 5,-10 10,-18 18,-26 11,-12 30,-22 48,-25 14,-2 119,-1 146,-1 5,0 9,0 14,0 14,0 18,3 1,-21 -31,-42 -87,-73 -140,-73 -34,0 -56,3 -86,17 -13,6 -29,17 -39,26l-14 13c-2,2 -12,12 -12,14z"/>
   <path class="fil0" d="M114 181c0,12 2,21 7,31 2,5 6,11 9,15 8,9 12,12 24,18 23,12 55,8 73,-9 6,-5 7,-5 12,-13 3,-3 5,-7 6,-11 20,-40 -6,-98 -64,-98 -35,0 -67,32 -67,67z"/>
  </g>
 </g>
</svg>
