<?xml version="1.0" encoding="UTF-8"?>
<!DOCTYPE svg PUBLIC "-//W3C//DTD SVG 1.1//EN" "http://www.w3.org/Graphics/SVG/1.1/DTD/svg11.dtd">
<!-- Creator: CorelDRAW X7 -->
<svg xmlns="http://www.w3.org/2000/svg" xml:space="preserve" width="100.161mm" height="24.9791mm" version="1.1" style="shape-rendering:geometricPrecision; text-rendering:geometricPrecision; image-rendering:optimizeQuality; fill-rule:evenodd; clip-rule:evenodd"
viewBox="0 0 2080 519"
 xmlns:xlink="http://www.w3.org/1999/xlink">
 <defs>
  <style type="text/css">
   <![CDATA[
    .fil0 {fill:#872723;fill-rule:nonzero}
    .fil1 {fill:#000002;fill-rule:nonzero}
   ]]>
  </style>
 </defs>
 <g id="Layer_x0020_1">
  <metadata id="CorelCorpID_0Corel-Layer"/>
  <path class="fil0" d="M121 38c34,0 63,6 89,20 25,13 45,32 59,56 14,25 21,53 21,84 0,32 -7,60 -21,84 -14,25 -34,44 -59,57 -26,14 -55,20 -89,20l-121 0 0 -321 121 0zm-5 254c29,0 53,-9 69,-25 17,-16 25,-39 25,-69 0,-29 -8,-52 -25,-69 -16,-16 -40,-24 -69,-24l-37 0 0 187 37 0z"/>
  <path class="fil0" d="M575 227c0,8 -1,15 -2,23l-177 0c1,16 6,28 15,37 9,8 20,12 34,12 19,0 33,-8 40,-24l84 0c-5,16 -12,32 -23,45 -12,13 -26,24 -42,32 -17,7 -36,11 -57,11 -25,0 -47,-5 -67,-16 -19,-11 -34,-26 -45,-46 -11,-20 -17,-43 -17,-70 0,-26 5,-49 16,-69 11,-20 26,-35 46,-46 19,-11 42,-16 67,-16 25,0 47,5 66,16 20,10 35,25 45,44 11,19 17,42 17,67zm-81 -20c0,-14 -4,-24 -13,-32 -9,-8 -21,-12 -35,-12 -13,0 -24,4 -33,11 -9,8 -14,19 -17,33l98 0z"/>
  <path class="fil0" d="M744 169l-42 0 0 190 -78 0 0 -190 -29 0 0 -65 29 0 0 -8c0,-31 9,-55 27,-71 18,-17 44,-25 79,-25 6,0 10,0 13,0l0 67c-15,-1 -26,1 -32,6 -6,6 -9,15 -9,28l0 3 42 0 0 65z"/>
  <path class="fil0" d="M1022 227c0,8 0,15 -1,23l-178 0c2,16 7,28 16,37 9,8 20,12 33,12 19,0 33,-8 41,-24l83 0c-4,16 -12,32 -23,45 -11,13 -25,24 -42,32 -17,7 -36,11 -56,11 -25,0 -48,-5 -67,-16 -20,-11 -35,-26 -46,-46 -11,-20 -17,-43 -17,-70 0,-26 6,-49 17,-69 11,-20 26,-35 45,-46 20,-11 42,-16 68,-16 24,0 46,5 66,16 19,10 34,25 45,44 11,19 16,42 16,67zm-80 -20c0,-14 -5,-24 -14,-32 -9,-8 -21,-12 -34,-12 -13,0 -24,4 -33,11 -10,8 -15,19 -17,33l98 0z"/>
  <path class="fil0" d="M1219 101c30,0 54,10 72,29 18,19 27,46 27,80l0 149 -78 0 0 -139c0,-17 -5,-30 -13,-39 -9,-10 -21,-15 -36,-15 -15,0 -27,5 -36,15 -9,9 -13,22 -13,39l0 139 -79 0 0 -255 79 0 0 34c8,-12 18,-21 32,-27 13,-7 28,-10 45,-10z"/>
  <path class="fil0" d="M1357 231c0,-26 5,-49 15,-69 10,-20 23,-35 40,-46 17,-11 36,-16 57,-16 17,0 33,3 47,10 13,7 24,17 32,29l0 -119 79 0 0 339 -79 0 0 -36c-7,12 -17,22 -31,29 -14,7 -29,11 -48,11 -21,0 -40,-5 -57,-16 -17,-11 -30,-27 -40,-47 -10,-20 -15,-43 -15,-69zm191 0c0,-19 -5,-35 -16,-46 -11,-11 -24,-17 -40,-17 -15,0 -28,6 -39,17 -11,11 -17,26 -17,46 0,20 6,35 17,47 11,11 24,17 39,17 16,0 29,-6 40,-17 11,-12 16,-27 16,-47z"/>
  <polygon class="fil1" points="1762,20 1762,359 1684,359 1684,20 "/>
  <polygon class="fil1" points="2080,104 1907,512 1822,513 1894,351 1790,104 1877,104 1937,264 1995,104 "/>
  <path class="fil1" d="M29 487c-5,0 -10,-1 -15,-3 -4,-2 -8,-5 -10,-8 -3,-4 -4,-8 -4,-13l12 0c0,4 2,8 5,10 3,3 7,4 12,4 6,0 10,-1 13,-3 3,-3 4,-6 4,-11 0,-3 -1,-5 -2,-7 -2,-3 -4,-4 -7,-5 -3,-1 -6,-2 -11,-3 -5,-2 -10,-3 -13,-5 -4,-1 -7,-4 -9,-7 -2,-3 -4,-7 -4,-12 0,-5 2,-9 4,-13 2,-3 6,-6 10,-8 4,-2 9,-3 15,-3 7,0 14,2 19,6 5,4 8,9 9,16l-13 0c0,-3 -2,-6 -5,-9 -3,-2 -7,-3 -12,-3 -4,0 -8,1 -11,3 -3,3 -4,6 -4,10 0,3 1,6 2,8 2,2 4,3 7,4 2,1 6,2 11,4 5,1 10,3 13,4 3,2 6,4 9,7 2,3 3,8 3,13 0,4 -1,8 -3,12 -2,3 -5,6 -10,8 -4,3 -9,4 -15,4zm105 -37c0,2 0,5 0,7l-53 0c0,6 2,12 7,15 4,4 9,6 14,6 5,0 9,-1 12,-4 4,-2 6,-5 7,-9l12 0c-2,7 -5,12 -11,16 -5,4 -12,6 -20,6 -6,0 -12,-1 -17,-4 -4,-3 -8,-7 -11,-12 -3,-5 -4,-12 -4,-18 0,-7 1,-13 4,-18 2,-6 6,-10 11,-12 5,-3 11,-5 17,-5 7,0 12,2 17,5 5,2 9,6 11,11 3,5 4,10 4,16zm-11 -2c0,-4 -1,-8 -3,-11 -2,-3 -4,-5 -7,-7 -4,-1 -7,-2 -11,-2 -6,0 -10,2 -14,5 -4,4 -6,9 -7,15l42 0zm22 5c0,-7 1,-13 4,-18 3,-6 6,-10 11,-12 5,-3 11,-5 17,-5 8,0 15,2 20,6 6,4 9,10 11,17l-12 0c-1,-4 -3,-7 -7,-10 -3,-2 -7,-3 -12,-3 -6,0 -11,2 -15,6 -4,5 -6,11 -6,19 0,8 2,14 6,18 4,5 9,7 15,7 5,0 9,-1 12,-4 4,-2 6,-5 7,-9l12 0c-2,6 -5,12 -11,16 -5,4 -12,6 -20,6 -6,0 -12,-1 -17,-4 -5,-3 -8,-7 -11,-12 -3,-5 -4,-11 -4,-18zm137 -34l0 67 -11 0 0 -10c-3,4 -6,6 -9,8 -4,2 -8,3 -13,3 -5,0 -10,-1 -14,-3 -4,-2 -7,-6 -9,-10 -3,-4 -4,-9 -4,-16l0 -39 11 0 0 38c0,7 2,12 5,15 3,4 8,5 13,5 6,0 11,-1 14,-5 4,-4 6,-9 6,-16l0 -37 11 0zm29 11c2,-4 5,-6 9,-9 3,-2 8,-3 13,-3l0 12 -3 0c-13,0 -19,6 -19,20l0 36 -11 0 0 -67 11 0 0 11zm40 -21c-2,0 -4,-1 -5,-3 -2,-1 -2,-3 -2,-5 0,-2 0,-4 2,-5 1,-2 3,-2 5,-2 2,0 4,0 5,2 2,1 2,3 2,5 0,2 0,4 -2,5 -1,2 -3,3 -5,3zm6 10l0 67 -11 0 0 -67 11 0zm51 -1c8,0 14,3 19,8 5,5 8,12 8,21l0 39 -11 0 0 -38c0,-6 -2,-11 -5,-15 -3,-3 -8,-5 -14,-5 -5,0 -10,2 -13,5 -4,4 -6,9 -6,16l0 37 -11 0 0 -67 11 0 0 10c3,-3 6,-6 9,-8 4,-2 8,-3 13,-3zm72 0c6,0 11,2 16,4 4,3 7,6 9,10l0 -13 11 0 0 68c0,7 -1,12 -4,17 -2,4 -6,8 -11,11 -4,2 -10,4 -16,4 -9,0 -16,-2 -22,-6 -6,-5 -10,-10 -11,-17l11 0c2,4 4,7 8,9 4,3 8,4 14,4 6,0 11,-2 14,-6 4,-3 6,-9 6,-16l0 -14c-2,4 -5,8 -10,10 -4,3 -9,4 -15,4 -5,0 -11,-1 -16,-4 -4,-3 -8,-7 -11,-13 -3,-5 -4,-11 -4,-18 0,-6 1,-12 4,-17 3,-6 7,-10 11,-12 5,-3 11,-5 16,-5zm25 35c0,-5 -1,-10 -3,-13 -2,-4 -5,-7 -8,-9 -3,-2 -7,-3 -11,-3 -4,0 -8,1 -12,3 -3,2 -6,5 -8,8 -2,4 -3,8 -3,13 0,6 1,10 3,14 2,4 5,6 8,8 4,2 8,3 12,3 4,0 8,-1 11,-3 3,-2 6,-4 8,-8 2,-4 3,-8 3,-13zm122 -52l-28 53 0 32 -11 0 0 -32 -28 -53 13 0 21 43 20 -43 13 0zm40 86c-6,0 -12,-1 -17,-4 -5,-3 -9,-7 -11,-12 -3,-5 -5,-12 -5,-18 0,-7 2,-13 5,-18 3,-6 7,-10 12,-12 5,-3 11,-5 17,-5 6,0 12,2 17,5 5,2 9,6 12,12 3,5 4,11 4,18 0,6 -1,13 -4,18 -3,5 -7,9 -12,12 -6,3 -11,4 -18,4zm0 -10c4,0 8,-1 12,-2 3,-2 6,-5 8,-9 2,-4 3,-8 3,-13 0,-6 -1,-10 -3,-14 -2,-4 -5,-6 -8,-8 -4,-2 -7,-3 -11,-3 -4,0 -8,1 -11,3 -4,2 -6,4 -8,8 -2,4 -4,8 -4,14 0,5 1,10 3,13 2,4 5,7 8,9 4,1 7,2 11,2zm108 -58l0 67 -11 0 0 -10c-2,4 -5,6 -9,8 -4,2 -8,3 -12,3 -5,0 -10,-1 -14,-3 -4,-2 -8,-6 -10,-10 -2,-4 -4,-9 -4,-16l0 -39 11 0 0 38c0,7 2,12 5,15 4,4 8,5 14,5 6,0 10,-1 14,-5 3,-4 5,-9 5,-16l0 -37 11 0zm30 11c2,-4 4,-6 8,-9 4,-2 8,-3 13,-3l0 12 -3 0c-12,0 -18,6 -18,20l0 36 -11 0 0 -67 11 0 0 11zm105 57c-8,0 -15,-2 -22,-6 -6,-3 -11,-9 -15,-15 -4,-7 -6,-14 -6,-22 0,-9 2,-16 6,-23 4,-6 9,-11 15,-15 7,-4 14,-6 22,-6 8,0 15,2 21,6 7,4 12,9 16,15 3,7 5,14 5,23 0,8 -2,15 -5,22 -4,7 -9,12 -16,15 -6,4 -13,6 -21,6zm0 -10c6,0 11,-1 16,-4 4,-3 8,-7 11,-12 3,-5 4,-11 4,-17 0,-7 -1,-13 -4,-18 -3,-5 -7,-9 -11,-12 -5,-3 -10,-4 -16,-4 -6,0 -12,1 -16,4 -5,3 -9,7 -11,12 -3,5 -4,11 -4,18 0,6 1,12 4,17 2,5 6,9 11,12 4,3 10,4 16,4zm89 -59c8,0 15,3 20,8 5,5 7,12 7,21l0 39 -11 0 0 -38c0,-6 -1,-11 -5,-15 -3,-3 -7,-5 -13,-5 -6,0 -11,2 -14,5 -4,4 -5,9 -5,16l0 37 -11 0 0 -67 11 0 0 10c2,-3 5,-6 9,-8 3,-2 8,-3 12,-3zm56 -22l0 90 -11 0 0 -90 11 0zm25 13c-2,0 -4,-1 -5,-3 -2,-1 -3,-3 -3,-5 0,-2 1,-4 3,-5 1,-2 3,-2 5,-2 2,0 4,0 5,2 2,1 2,3 2,5 0,2 0,4 -2,5 -1,2 -3,3 -5,3zm5 10l0 67 -11 0 0 -67 11 0zm52 -1c8,0 14,3 19,8 5,5 8,12 8,21l0 39 -11 0 0 -38c0,-6 -2,-11 -5,-15 -4,-3 -8,-5 -14,-5 -6,0 -10,2 -14,5 -3,4 -5,9 -5,16l0 37 -11 0 0 -67 11 0 0 10c2,-3 5,-6 9,-8 4,-2 8,-3 13,-3zm105 32c0,2 0,5 0,7l-53 0c0,6 3,12 7,15 4,4 9,6 15,6 4,0 8,-1 11,-4 4,-2 6,-5 7,-9l12 0c-2,7 -5,12 -11,16 -5,4 -12,6 -19,6 -7,0 -12,-1 -17,-4 -5,-3 -9,-7 -12,-12 -3,-5 -4,-12 -4,-18 0,-7 1,-13 4,-18 3,-6 6,-10 11,-12 5,-3 11,-5 18,-5 6,0 11,2 16,5 5,2 9,6 12,11 2,5 3,10 3,16zm-11 -2c0,-4 -1,-8 -3,-11 -2,-3 -4,-5 -7,-7 -4,-1 -7,-2 -11,-2 -6,0 -10,2 -14,5 -4,4 -6,9 -7,15l42 0zm101 -47l0 63c0,7 -2,12 -6,17 -5,4 -10,6 -17,6 -8,0 -13,-2 -18,-7 -4,-4 -6,-10 -6,-17l11 0c0,4 1,8 3,10 2,3 5,4 10,4 4,0 7,-1 9,-4 2,-2 3,-5 3,-9l0 -63 11 0zm51 86c-6,0 -12,-1 -17,-4 -5,-3 -9,-7 -12,-12 -3,-5 -4,-12 -4,-18 0,-7 1,-13 4,-18 3,-6 7,-10 12,-12 5,-3 11,-5 17,-5 7,0 12,2 17,5 5,2 9,6 12,12 3,5 5,11 5,18 0,6 -2,13 -5,18 -3,5 -7,9 -12,12 -5,3 -11,4 -17,4zm0 -10c4,0 7,-1 11,-2 3,-2 6,-5 8,-9 2,-4 4,-8 4,-13 0,-6 -1,-10 -4,-14 -2,-4 -4,-6 -8,-8 -3,-2 -7,-3 -11,-3 -4,0 -8,1 -11,3 -3,2 -6,4 -8,8 -2,4 -3,8 -3,14 0,5 1,10 3,13 2,4 4,7 8,9 3,1 7,2 11,2zm107 -58l0 67 -11 0 0 -10c-2,4 -5,6 -8,8 -4,2 -8,3 -13,3 -5,0 -10,-1 -14,-3 -4,-2 -7,-6 -10,-10 -2,-4 -3,-9 -3,-16l0 -39 11 0 0 38c0,7 1,12 5,15 3,4 8,5 13,5 6,0 11,-1 14,-5 4,-4 5,-9 5,-16l0 -37 11 0zm30 11c2,-4 5,-6 8,-9 4,-2 8,-3 14,-3l0 12 -3 0c-13,0 -19,6 -19,20l0 36 -11 0 0 -67 11 0 0 11zm67 -12c8,0 14,3 19,8 5,5 8,12 8,21l0 39 -11 0 0 -38c0,-6 -2,-11 -5,-15 -3,-3 -8,-5 -14,-5 -5,0 -10,2 -13,5 -4,4 -6,9 -6,16l0 37 -11 0 0 -67 11 0 0 10c3,-3 6,-6 9,-8 4,-2 8,-3 13,-3zm106 32c0,2 0,5 -1,7l-53 0c1,6 3,12 7,15 4,4 9,6 15,6 5,0 9,-1 12,-4 3,-2 5,-5 6,-9l12 0c-1,7 -5,12 -10,16 -6,4 -12,6 -20,6 -7,0 -12,-1 -17,-4 -5,-3 -9,-7 -12,-12 -3,-5 -4,-12 -4,-18 0,-7 1,-13 4,-18 3,-6 7,-10 12,-12 5,-3 10,-5 17,-5 6,0 12,2 17,5 4,2 8,6 11,11 2,5 4,10 4,16zm-12 -2c0,-4 -1,-8 -3,-11 -1,-3 -4,-5 -7,-7 -3,-1 -7,-2 -11,-2 -5,0 -10,2 -14,5 -4,4 -6,9 -7,15l42 0zm84 -29l-39 94 -11 0 11 -28 -27 -66 13 0 20 54 21 -54 12 0z"/>
 </g>
</svg>
