<?xml version="1.0" encoding="UTF-8"?>
<!DOCTYPE svg PUBLIC "-//W3C//DTD SVG 1.1//EN" "http://www.w3.org/Graphics/SVG/1.1/DTD/svg11.dtd">
<!-- Creator: CorelDRAW X7 -->
<svg xmlns="http://www.w3.org/2000/svg" xml:space="preserve" width="38.4136mm" height="8.8816mm" version="1.1" style="shape-rendering:geometricPrecision; text-rendering:geometricPrecision; image-rendering:optimizeQuality; fill-rule:evenodd; clip-rule:evenodd"
viewBox="0 0 505690 116921"
 xmlns:xlink="http://www.w3.org/1999/xlink">
 <defs>
  <style type="text/css">
   <![CDATA[
    .fil0 {fill:#872723;fill-rule:nonzero}
    .fil1 {fill:#000002;fill-rule:nonzero}
   ]]>
  </style>
 </defs>
 <g id="Layer_x0020_1">
  <metadata id="CorelCorpID_0Corel-Layer"/>
  <path class="fil0" d="M29314 9140c8248,0 15455,1635 21623,4904 6167,3270 10942,7858 14323,13764 3380,5909 5071,12726 5071,20454 0,7654 -1691,14452 -5071,20397 -3381,5945 -8174,10551 -14378,13821 -6205,3269 -13394,4904 -21568,4904l-29314 0 0 -78244 29314 0zm-1227 61747c7209,0 12819,-1968 16831,-5906 4013,-3939 6019,-9512 6019,-16719 0,-7208 -2006,-12818 -6019,-16831 -4012,-4012 -9622,-6019 -16831,-6019l-9028 0 0 45475 9028 0z"/>
  <path class="fil0" d="M139658 55284c0,1783 -111,3641 -334,5572l-43135 0c298,3864 1542,6818 3734,8861 2193,2045 4886,3066 8081,3066 4755,0 8062,-2006 9920,-6019l20286 0c-1041,4087 -2917,7765 -5629,11035 -2712,3268 -6112,5833 -10199,7690 -4087,1858 -8656,2786 -13709,2786 -6094,0 -11517,-1299 -16274,-3901 -4755,-2601 -8470,-6316 -11145,-11146 -2675,-4830 -4012,-10476 -4012,-16941 0,-6465 1319,-12113 3956,-16941 2638,-4830 6334,-8547 11091,-11147 4755,-2601 10217,-3902 16384,-3902 6019,0 11369,1264 16050,3790 4681,2527 8341,6131 10979,10812 2637,4682 3956,10144 3956,16385zm-19506 -5016c0,-3270 -1113,-5870 -3343,-7802 -2229,-1932 -5016,-2898 -8360,-2898 -3195,0 -5888,928 -8080,2787 -2192,1858 -3548,4494 -4068,7913l23851 0z"/>
  <path class="fil0" d="M180898 41018l-10254 0 0 46366 -19059 0 0 -46366 -6911 0 0 -15828 6911 0 0 -1784c0,-7654 2192,-13467 6576,-17443 4383,-3975 10811,-5963 19281,-5963 1413,0 2453,37 3122,112l0 16160c-3642,-222 -6205,298 -7691,1562 -1486,1262 -2229,3529 -2229,6798l0 558 10254 0 0 15828z"/>
  <path class="fil0" d="M248442 55284c0,1783 -111,3641 -335,5572l-43134 0c298,3864 1542,6818 3733,8861 2194,2045 4887,3066 8082,3066 4755,0 8062,-2006 9919,-6019l20287 0c-1042,4087 -2918,7765 -5629,11035 -2712,3268 -6113,5833 -10199,7690 -4087,1858 -8657,2786 -13709,2786 -6094,0 -11518,-1299 -16274,-3901 -4755,-2601 -8470,-6316 -11145,-11146 -2675,-4830 -4012,-10476 -4012,-16941 0,-6465 1319,-12113 3955,-16941 2639,-4830 6335,-8547 11091,-11147 4755,-2601 10217,-3902 16385,-3902 6019,0 11369,1264 16050,3790 4681,2527 8341,6131 10979,10812 2637,4682 3956,10144 3956,16385zm-19506 -5016c0,-3270 -1114,-5870 -3344,-7802 -2228,-1932 -5015,-2898 -8359,-2898 -3195,0 -5888,928 -8080,2787 -2192,1858 -3548,4494 -4068,7913l23851 0z"/>
  <path class="fil0" d="M296369 24521c7283,0 13097,2359 17444,7077 4347,4719 6521,11202 6521,19451l0 36335 -18949 0 0 -33772c0,-4161 -1077,-7393 -3232,-9697 -2155,-2304 -5052,-3456 -8694,-3456 -3641,0 -6538,1152 -8693,3456 -2156,2304 -3234,5536 -3234,9697l0 33772 -19059 0 0 -62194 19059 0 0 8247c1933,-2748 4534,-4922 7803,-6520 3270,-1597 6948,-2396 11034,-2396z"/>
  <path class="fil0" d="M329808 56175c0,-6390 1207,-12001 3622,-16829 2415,-4830 5702,-8547 9864,-11147 4161,-2601 8805,-3902 13933,-3902 4086,0 7821,856 11201,2565 3381,1709 6037,4012 7969,6910l0 -28868 19060 0 0 82480 -19060 0 0 -8917c-1783,2972 -4327,5350 -7634,7133 -3307,1784 -7153,2675 -11536,2675 -5128,0 -9772,-1319 -13933,-3956 -4162,-2638 -7449,-6391 -9864,-11258 -2415,-4867 -3622,-10496 -3622,-16886zm46589 112c0,-4756 -1318,-8508 -3956,-11257 -2638,-2750 -5852,-4124 -9642,-4124 -3790,0 -7003,1356 -9641,4067 -2637,2712 -3956,6447 -3956,11202 0,4756 1319,8527 3956,11313 2638,2787 5851,4180 9641,4180 3790,0 7004,-1374 9642,-4124 2638,-2749 3956,-6502 3956,-11257z"/>
  <polygon class="fil1" points="428337,4904 428337,87384 409277,87384 409277,4904 "/>
  <polygon class="fil1" points="505690,25190 466679,116921 446170,116921 460438,85266 435136,25190 456425,25190 470804,64089 485070,25190 "/>
  <path class="fil1" d="M30000 109592c-1281,0 -2429,-228 -3441,-682 -1012,-455 -1806,-1087 -2381,-1896 -577,-808 -873,-1741 -893,-2800l2704 0c92,911 469,1677 1128,2299 660,623 1621,933 2883,933 1209,0 2161,-301 2857,-906 696,-602 1045,-1378 1045,-2326 0,-742 -205,-1346 -613,-1811 -408,-463 -919,-818 -1533,-1058 -613,-241 -1440,-502 -2480,-781 -1281,-335 -2307,-669 -3079,-1003 -770,-335 -1430,-859 -1977,-1573 -549,-717 -823,-1678 -823,-2885 0,-1058 270,-1997 808,-2814 539,-818 1296,-1450 2271,-1895 976,-446 2095,-668 3357,-668 1821,0 3312,455 4473,1365 1161,909 1816,2118 1964,3623l-2786 0c-93,-744 -484,-1398 -1171,-1966 -687,-566 -1597,-849 -2730,-849 -1058,0 -1922,274 -2591,822 -669,547 -1003,1313 -1003,2298 0,707 199,1282 599,1729 399,444 891,784 1476,1016 586,233 1407,497 2467,794 1281,354 2311,701 3092,1045 781,343 1449,873 2006,1589 557,715 836,1685 836,2910 0,948 -251,1839 -753,2675 -500,836 -1244,1514 -2228,2036 -985,520 -2146,779 -3484,779zm24131 -8415c0,483 -28,994 -85,1533l-12203 0c92,1504 608,2680 1545,3525 939,845 2076,1268 3414,1268 1097,0 2011,-256 2745,-766 733,-511 1249,-1194 1547,-2049l2730 0c-408,1468 -1226,2661 -2453,3581 -1225,919 -2748,1378 -4569,1378 -1449,0 -2745,-324 -3888,-974 -1141,-650 -2037,-1574 -2688,-2772 -650,-1198 -975,-2587 -975,-4167 0,-1578 316,-2962 948,-4151 632,-1188 1518,-2103 2660,-2744 1143,-641 2457,-961 3943,-961 1449,0 2730,314 3845,946 1115,632 1974,1501 2578,2605 603,1106 906,2356 906,3748zm-2620 -529c0,-966 -213,-1797 -641,-2493 -427,-698 -1007,-1227 -1742,-1589 -733,-362 -1545,-544 -2438,-544 -1281,0 -2372,410 -3274,1227 -900,816 -1415,1950 -1545,3399l9640 0zm5015 1086c0,-1578 316,-2958 948,-4137 632,-1180 1509,-2095 2633,-2745 1124,-650 2411,-974 3859,-974 1877,0 3422,454 4640,1365 1216,909 2019,2173 2409,3789l-2730 0c-259,-929 -766,-1663 -1518,-2202 -753,-538 -1686,-808 -2801,-808 -1448,0 -2619,498 -3510,1492 -893,994 -1337,2401 -1337,4220 0,1839 444,3261 1337,4264 891,1003 2062,1505 3510,1505 1115,0 2044,-261 2787,-781 742,-520 1254,-1262 1532,-2229l2730 0c-408,1560 -1225,2810 -2451,3748 -1226,938 -2759,1406 -4598,1406 -1448,0 -2735,-324 -3859,-974 -1124,-650 -2001,-1570 -2633,-2759 -632,-1189 -948,-2582 -948,-4180zm31403 -7606l0 15269 -2536 0 0 -2256c-483,779 -1156,1387 -2019,1824 -864,437 -1817,655 -2857,655 -1189,0 -2256,-247 -3204,-739 -947,-492 -1694,-1229 -2243,-2214 -548,-985 -822,-2183 -822,-3595l0 -8944 2508 0 0 8609c0,1505 381,2662 1143,3469 761,808 1801,1213 3120,1213 1356,0 2425,-418 3204,-1254 781,-836 1170,-2052 1170,-3650l0 -8387 2536 0zm6827 2480c446,-873 1082,-1551 1909,-2034 826,-483 1833,-725 3022,-725l0 2619 -669 0c-2842,0 -4262,1542 -4262,4626l0 8303 -2536 0 0 -15269 2536 0 0 2480zm9167 -4960c-483,0 -892,-168 -1227,-502 -334,-334 -501,-742 -501,-1226 0,-483 167,-891 501,-1225 335,-335 744,-502 1227,-502 464,0 859,167 1184,502 325,334 488,742 488,1225 0,484 -163,892 -488,1226 -325,334 -720,502 -1184,502zm1226 2480l0 15269 -2535 0 0 -15269 2535 0zm11758 -279c1858,0 3363,562 4514,1686 1152,1124 1728,2745 1728,4862l0 9000 -2508 0 0 -8637c0,-1524 -381,-2689 -1142,-3498 -762,-808 -1802,-1212 -3121,-1212 -1337,0 -2401,418 -3191,1254 -788,836 -1183,2053 -1183,3651l0 8442 -2536 0 0 -15269 2536 0 0 2173c501,-780 1183,-1383 2048,-1811 864,-427 1815,-641 2855,-641zm16690 29c1319,0 2476,287 3469,863 994,576 1732,1300 2216,2174l0 -2787 2563 0 0 15604c0,1392 -297,2632 -892,3720 -593,1086 -1444,1936 -2550,2548 -1104,614 -2390,921 -3858,921 -2006,0 -3678,-474 -5016,-1422 -1337,-947 -2127,-2238 -2368,-3873l2508 0c279,929 854,1677 1727,2243 873,567 1923,850 3149,850 1393,0 2532,-437 3414,-1309 882,-873 1323,-2100 1323,-3678l0 -3205c-502,892 -1244,1635 -2229,2229 -985,595 -2137,891 -3456,891 -1356,0 -2587,-333 -3691,-1002 -1106,-668 -1973,-1607 -2605,-2814 -632,-1207 -948,-2583 -948,-4124 0,-1560 316,-2931 948,-4110 632,-1180 1499,-2095 2605,-2745 1104,-650 2335,-974 3691,-974zm5685 7856c0,-1152 -232,-2154 -697,-3009 -465,-855 -1091,-1509 -1881,-1964 -789,-454 -1657,-682 -2605,-682 -947,0 -1812,222 -2591,669 -781,444 -1403,1095 -1867,1949 -464,855 -696,1858 -696,3010 0,1170 232,2187 696,3051 464,864 1086,1523 1867,1979 779,454 1644,682 2591,682 948,0 1816,-228 2605,-682 790,-456 1416,-1115 1881,-1979 465,-864 697,-1872 697,-3024zm27891 -11758l-6326 12093 0 7328 -2535 0 0 -7328 -6353 -12093 2814 0 4792 9836 4793 -9836 2815 0zm9333 19671c-1429,0 -2725,-324 -3886,-974 -1161,-650 -2072,-1574 -2730,-2772 -660,-1198 -990,-2587 -990,-4167 0,-1560 340,-2939 1018,-4137 678,-1198 1602,-2117 2772,-2758 1170,-641 2479,-961 3928,-961 1450,0 2760,320 3930,961 1169,641 2094,1556 2772,2744 678,1189 1017,2573 1017,4151 0,1580 -348,2969 -1046,4167 -696,1198 -1639,2122 -2827,2772 -1189,650 -2508,974 -3958,974zm0 -2228c911,0 1766,-214 2565,-642 798,-426 1444,-1067 1936,-1922 493,-854 739,-1894 739,-3121 0,-1225 -242,-2265 -726,-3120 -483,-854 -1113,-1491 -1894,-1909 -781,-418 -1626,-626 -2535,-626 -930,0 -1779,208 -2550,626 -770,418 -1389,1055 -1852,1909 -465,855 -697,1895 -697,3120 0,1246 227,2295 682,3149 456,854 1064,1490 1826,1909 761,417 1597,627 2506,627zm24715 -13291l0 15269 -2535 0 0 -2256c-483,779 -1156,1387 -2020,1824 -863,437 -1816,655 -2856,655 -1189,0 -2257,-247 -3205,-739 -946,-492 -1694,-1229 -2243,-2214 -547,-985 -821,-2183 -821,-3595l0 -8944 2508 0 0 8609c0,1505 380,2662 1142,3469 761,808 1801,1213 3120,1213 1356,0 2425,-418 3204,-1254 781,-836 1171,-2052 1171,-3650l0 -8387 2535 0zm6827 2480c446,-873 1082,-1551 1909,-2034 827,-483 1834,-725 3023,-725l0 2619 -669 0c-2842,0 -4263,1542 -4263,4626l0 8303 -2535 0 0 -15269 2535 0 0 2480zm24102 12984c-1801,0 -3446,-423 -4932,-1268 -1486,-845 -2660,-2024 -3525,-3538 -864,-1514 -1296,-3219 -1296,-5113 0,-1895 432,-3600 1296,-5113 865,-1514 2039,-2694 3525,-3539 1486,-845 3131,-1268 4932,-1268 1820,0 3474,423 4960,1268 1486,845 2656,2021 3511,3525 854,1504 1281,3214 1281,5127 0,1912 -427,3622 -1281,5127 -855,1505 -2025,2679 -3511,3524 -1486,845 -3140,1268 -4960,1268zm0 -2201c1355,0 2577,-316 3664,-948 1087,-631 1941,-1532 2564,-2703 622,-1170 933,-2526 933,-4067 0,-1560 -311,-2922 -933,-4083 -623,-1161 -1472,-2057 -2550,-2688 -1077,-632 -2304,-948 -3678,-948 -1375,0 -2600,316 -3679,948 -1076,631 -1927,1527 -2548,2688 -623,1161 -934,2523 -934,4083 0,1541 311,2897 934,4067 621,1171 1476,2072 2563,2703 1086,632 2308,948 3664,948zm20535 -13542c1857,0 3362,562 4514,1686 1152,1124 1727,2745 1727,4862l0 9000 -2508 0 0 -8637c0,-1524 -380,-2689 -1141,-3498 -763,-808 -1803,-1212 -3122,-1212 -1337,0 -2401,418 -3191,1254 -788,836 -1183,2053 -1183,3651l0 8442 -2536 0 0 -15269 2536 0 0 2173c501,-780 1183,-1383 2048,-1811 864,-427 1816,-641 2856,-641zm12928 -5071l0 20619 -2535 0 0 -20619 2535 0zm5629 2870c-483,0 -892,-168 -1227,-502 -334,-334 -501,-742 -501,-1226 0,-483 167,-891 501,-1225 335,-335 744,-502 1227,-502 464,0 859,167 1184,502 325,334 488,742 488,1225 0,484 -163,892 -488,1226 -325,334 -720,502 -1184,502zm1226 2480l0 15269 -2535 0 0 -15269 2535 0zm11758 -279c1858,0 3363,562 4514,1686 1152,1124 1728,2745 1728,4862l0 9000 -2508 0 0 -8637c0,-1524 -381,-2689 -1142,-3498 -762,-808 -1802,-1212 -3121,-1212 -1337,0 -2401,418 -3191,1254 -788,836 -1183,2053 -1183,3651l0 8442 -2536 0 0 -15269 2536 0 0 2173c501,-780 1183,-1383 2048,-1811 864,-427 1815,-641 2855,-641zm24326 7328c0,483 -28,994 -85,1533l-12203 0c92,1504 608,2680 1545,3525 939,845 2076,1268 3414,1268 1097,0 2011,-256 2745,-766 733,-511 1249,-1194 1546,-2049l2731 0c-408,1468 -1226,2661 -2453,3581 -1225,919 -2748,1378 -4569,1378 -1449,0 -2745,-324 -3888,-974 -1141,-650 -2037,-1574 -2688,-2772 -650,-1198 -975,-2587 -975,-4167 0,-1578 316,-2962 948,-4151 632,-1188 1518,-2103 2660,-2744 1143,-641 2457,-961 3943,-961 1449,0 2730,314 3845,946 1115,632 1974,1501 2578,2605 603,1106 906,2356 906,3748zm-2620 -529c0,-966 -213,-1797 -641,-2493 -427,-698 -1007,-1227 -1742,-1589 -733,-362 -1545,-544 -2438,-544 -1281,0 -2372,410 -3274,1227 -900,816 -1415,1950 -1545,3399l9640 0zm23182 -10672l0 14350c0,1597 -492,2874 -1477,3831 -984,957 -2284,1435 -3900,1435 -1635,0 -2945,-487 -3929,-1463 -984,-975 -1477,-2307 -1477,-3998l2536 0c18,947 264,1718 738,2312 474,595 1184,893 2132,893 947,0 1653,-283 2118,-851 463,-566 696,-1286 696,-2159l0 -14350 2563 0zm11647 19671c-1430,0 -2725,-324 -3886,-974 -1161,-650 -2072,-1574 -2731,-2772 -659,-1198 -990,-2587 -990,-4167 0,-1560 340,-2939 1018,-4137 678,-1198 1602,-2117 2772,-2758 1171,-641 2479,-961 3929,-961 1449,0 2759,320 3929,961 1169,641 2095,1556 2773,2744 678,1189 1016,2573 1016,4151 0,1580 -348,2969 -1045,4167 -697,1198 -1639,2122 -2828,2772 -1189,650 -2508,974 -3957,974zm0 -2228c911,0 1765,-214 2564,-642 798,-426 1444,-1067 1937,-1922 492,-854 738,-1894 738,-3121 0,-1225 -242,-2265 -725,-3120 -483,-854 -1114,-1491 -1895,-1909 -780,-418 -1625,-626 -2535,-626 -929,0 -1778,208 -2550,626 -770,418 -1389,1055 -1852,1909 -465,855 -697,1895 -697,3120 0,1246 227,2295 682,3149 456,854 1064,1490 1826,1909 761,417 1597,627 2507,627zm24715 -13291l0 15269 -2536 0 0 -2256c-483,779 -1156,1387 -2019,1824 -864,437 -1817,655 -2857,655 -1189,0 -2256,-247 -3204,-739 -947,-492 -1694,-1229 -2243,-2214 -548,-985 -822,-2183 -822,-3595l0 -8944 2508 0 0 8609c0,1505 380,2662 1143,3469 760,808 1800,1213 3120,1213 1355,0 2424,-418 3204,-1254 780,-836 1170,-2052 1170,-3650l0 -8387 2536 0zm6827 2480c446,-873 1082,-1551 1908,-2034 827,-483 1834,-725 3023,-725l0 2619 -669 0c-2842,0 -4262,1542 -4262,4626l0 8303 -2536 0 0 -15269 2536 0 0 2480zm15297 -2759c1857,0 3362,562 4514,1686 1151,1124 1727,2745 1727,4862l0 9000 -2508 0 0 -8637c0,-1524 -380,-2689 -1141,-3498 -763,-808 -1803,-1212 -3122,-1212 -1337,0 -2401,418 -3191,1254 -788,836 -1183,2053 -1183,3651l0 8442 -2536 0 0 -15269 2536 0 0 2173c501,-780 1183,-1383 2048,-1811 864,-427 1816,-641 2856,-641zm24325 7328c0,483 -28,994 -85,1533l-12203 0c92,1504 608,2680 1546,3525 938,845 2076,1268 3413,1268 1097,0 2012,-256 2745,-766 733,-511 1249,-1194 1547,-2049l2730 0c-408,1468 -1226,2661 -2453,3581 -1225,919 -2748,1378 -4569,1378 -1449,0 -2745,-324 -3887,-974 -1142,-650 -2038,-1574 -2689,-2772 -650,-1198 -975,-2587 -975,-4167 0,-1578 316,-2962 948,-4151 632,-1188 1518,-2103 2660,-2744 1143,-641 2457,-961 3943,-961 1449,0 2730,314 3845,946 1115,632 1974,1501 2578,2605 603,1106 906,2356 906,3748zm-2620 -529c0,-966 -213,-1797 -641,-2493 -427,-698 -1007,-1227 -1742,-1589 -733,-362 -1545,-544 -2438,-544 -1281,0 -2372,410 -3274,1227 -900,816 -1415,1950 -1545,3399l9640 0zm19115 -6520l-9196 22458 -2618 0 3009 -7356 -6158 -15102 2815 0 4791 12372 4738 -12372 2619 0z"/>
 </g>
</svg>
