<svg xmlns="http://www.w3.org/2000/svg" xmlns:xlink="http://www.w3.org/1999/xlink" width="1080" zoomAndPan="magnify" viewBox="0 0 810 809.999993" height="1080" preserveAspectRatio="xMidYMid meet" version="1.0"><defs><clipPath id="14fe09177c"><path d="M 96.617188 96.617188 L 713.382812 96.617188 L 713.382812 713.382812 L 96.617188 713.382812 Z M 96.617188 96.617188 " clip-rule="nonzero"/></clipPath><clipPath id="591bbaaf0f"><path d="M 405 96.617188 C 234.683594 96.617188 96.617188 234.683594 96.617188 405 C 96.617188 575.316406 234.683594 713.382812 405 713.382812 C 575.316406 713.382812 713.382812 575.316406 713.382812 405 C 713.382812 234.683594 575.316406 96.617188 405 96.617188 Z M 405 96.617188 " clip-rule="nonzero"/></clipPath><clipPath id="6e4e022098"><path d="M 386 231.011719 L 581.613281 231.011719 L 581.613281 427 L 386 427 Z M 386 231.011719 " clip-rule="nonzero"/></clipPath></defs><g clip-path="url(#14fe09177c)"><g clip-path="url(#591bbaaf0f)"><path fill="#ffffff" d="M 96.617188 96.617188 L 713.382812 96.617188 L 713.382812 713.382812 L 96.617188 713.382812 Z M 96.617188 96.617188 " fill-opacity="1" fill-rule="nonzero"/></g></g><g clip-path="url(#6e4e022098)"><path fill="#092c66" d="M 576.738281 307.835938 L 554.417969 304.570312 C 553.328125 301.847656 552.242188 298.582031 551.152344 295.859375 L 564.214844 277.351562 C 565.851562 275.175781 565.304688 272.453125 563.671875 270.277344 L 541.898438 248.503906 C 540.265625 246.871094 537 246.324219 534.824219 247.960938 L 516.316406 261.023438 C 513.59375 259.933594 510.871094 258.300781 507.605469 257.757812 L 503.796875 235.4375 C 503.25 232.71875 501.074219 231.085938 498.351562 231.085938 L 467.871094 231.085938 C 465.148438 231.085938 462.96875 233.261719 462.425781 235.4375 L 458.617188 257.757812 C 455.894531 258.847656 452.628906 259.933594 449.90625 261.023438 L 431.398438 247.960938 C 429.222656 246.324219 426.5 246.871094 424.324219 248.503906 L 402.550781 270.277344 C 400.917969 271.910156 400.371094 275.175781 402.003906 277.351562 L 415.070312 295.859375 C 413.980469 298.582031 412.347656 301.304688 411.804688 304.570312 L 391.117188 307.835938 C 388.398438 308.378906 386.761719 310.558594 386.761719 313.28125 L 386.761719 343.761719 C 386.761719 346.484375 388.941406 348.660156 391.117188 349.207031 L 413.4375 353.015625 C 414.523438 355.738281 415.613281 359.003906 416.703125 361.726562 L 403.636719 380.234375 C 402.003906 382.410156 402.550781 385.132812 404.183594 387.308594 L 425.957031 409.082031 C 427.589844 410.714844 430.855469 411.257812 433.03125 409.625 L 451.539062 396.5625 C 454.261719 397.652344 456.984375 399.285156 460.25 399.828125 L 464.058594 422.144531 C 464.601562 424.867188 466.78125 426.5 469.503906 426.5 L 499.984375 426.5 C 502.707031 426.5 504.882812 424.324219 505.429688 422.144531 L 509.238281 399.828125 C 511.960938 398.738281 515.226562 397.652344 517.949219 396.5625 L 536.457031 409.625 C 538.632812 411.257812 541.355469 410.714844 543.53125 409.082031 L 565.304688 387.308594 C 566.9375 385.675781 567.484375 382.410156 565.851562 380.234375 L 551.152344 361.726562 C 552.242188 359.003906 553.875 356.28125 554.417969 353.015625 L 576.738281 349.207031 C 579.457031 348.660156 581.089844 346.484375 581.089844 343.761719 L 581.089844 313.28125 C 581.636719 310.558594 579.457031 308.378906 576.738281 307.835938 Z M 570.75 339.40625 L 549.519531 342.671875 C 547.34375 343.21875 545.710938 344.304688 545.164062 346.484375 C 544.078125 350.839844 541.898438 355.191406 539.722656 359.003906 C 538.632812 360.636719 538.632812 362.8125 540.265625 364.992188 L 552.785156 382.410156 L 537.542969 397.652344 L 520.125 385.132812 C 518.492188 384.042969 516.316406 383.5 514.136719 384.585938 C 510.328125 386.765625 505.972656 388.398438 501.617188 390.03125 C 499.441406 390.574219 498.351562 392.207031 497.808594 394.386719 L 494.542969 415.613281 L 473.3125 415.613281 L 470.046875 394.386719 C 469.503906 392.207031 468.414062 390.574219 466.238281 390.03125 C 461.882812 388.941406 457.527344 386.765625 453.714844 384.585938 C 452.082031 383.5 449.363281 383.5 447.730469 385.132812 L 430.308594 397.652344 L 415.070312 382.410156 L 427.589844 364.992188 C 428.675781 363.359375 428.675781 361.179688 428.132812 359.003906 C 425.957031 355.191406 424.324219 350.839844 422.691406 346.484375 C 422.144531 344.304688 420.511719 343.21875 418.335938 342.671875 L 397.105469 339.40625 L 397.105469 318.179688 L 418.335938 314.914062 C 420.511719 314.367188 422.144531 313.28125 422.691406 311.101562 C 423.777344 306.746094 425.957031 302.394531 428.132812 298.582031 C 429.222656 296.949219 429.222656 294.773438 427.589844 292.59375 L 415.070312 274.632812 L 430.308594 259.390625 L 447.730469 271.910156 C 449.363281 273 451.539062 273.542969 453.714844 272.453125 C 457.527344 270.277344 461.882812 268.644531 466.238281 267.011719 C 468.414062 266.464844 469.503906 264.832031 470.046875 262.65625 L 473.3125 241.425781 L 494.542969 241.425781 L 497.808594 262.65625 C 498.351562 264.832031 499.441406 266.464844 501.617188 267.011719 C 505.972656 268.097656 510.328125 270.277344 514.136719 272.453125 C 515.769531 273.542969 518.492188 273.542969 520.125 271.910156 L 537.542969 259.390625 L 552.785156 274.632812 L 540.265625 292.050781 C 539.175781 293.683594 539.175781 295.859375 539.722656 298.039062 C 541.898438 301.847656 543.53125 306.203125 545.164062 310.558594 C 545.710938 312.734375 547.34375 313.824219 549.519531 314.367188 L 570.75 318.179688 Z M 570.75 339.40625 " fill-opacity="1" fill-rule="nonzero"/></g><path fill="#092c66" d="M 484.199219 284.972656 C 460.25 284.972656 440.652344 304.570312 440.652344 328.519531 C 440.652344 352.472656 460.25 372.066406 484.199219 372.066406 C 508.148438 372.066406 527.746094 352.472656 527.746094 328.519531 C 527.746094 304.570312 508.148438 284.972656 484.199219 284.972656 Z M 484.199219 361.179688 C 466.238281 361.179688 451.539062 346.484375 451.539062 328.519531 C 451.539062 310.558594 466.238281 295.859375 484.199219 295.859375 C 502.164062 295.859375 516.859375 310.558594 516.859375 328.519531 C 516.859375 346.484375 502.164062 361.179688 484.199219 361.179688 Z M 484.199219 361.179688 " fill-opacity="1" fill-rule="nonzero"/><path fill="#092c66" d="M 296.949219 357.371094 C 269.730469 360.636719 246.871094 378.597656 237.617188 404.726562 C 228.363281 430.855469 234.894531 459.160156 254.488281 478.757812 C 267.554688 491.820312 268.097656 505.429688 268.097656 510.871094 C 264.289062 513.59375 261.566406 518.492188 261.566406 523.394531 C 261.566406 529.378906 264.832031 534.28125 269.1875 537 C 268.097656 539.179688 267.554688 541.355469 267.554688 543.53125 C 267.554688 551.699219 274.085938 558.773438 282.25 558.773438 C 283.882812 570.207031 293.683594 578.914062 305.65625 578.914062 C 317.632812 578.914062 327.429688 570.207031 329.0625 558.773438 C 337.230469 558.230469 343.761719 551.699219 343.761719 543.53125 C 343.761719 541.355469 343.214844 538.632812 342.128906 537 C 347.027344 534.28125 349.75 529.378906 349.75 523.394531 C 349.75 517.949219 347.027344 513.59375 342.671875 510.328125 C 343.214844 498.351562 347.570312 486.921875 356.824219 477.125 C 378.054688 455.351562 382.953125 423.234375 369.34375 395.472656 C 355.738281 369.347656 327.976562 354.105469 296.949219 357.371094 Z M 294.769531 445.007812 L 300.757812 449.90625 C 302.9375 451.539062 305.65625 451.539062 307.835938 449.90625 L 313.824219 445.007812 L 308.921875 508.695312 L 299.667969 508.695312 Z M 333.964844 519.582031 C 336.683594 519.582031 338.316406 521.757812 338.316406 523.9375 C 338.316406 526.113281 336.140625 528.292969 333.964844 528.292969 C 309.46875 528.292969 294.769531 528.292969 276.261719 528.292969 C 273.542969 528.292969 271.910156 526.113281 271.910156 523.9375 C 271.910156 521.757812 273.542969 519.582031 276.261719 519.582031 Z M 305.113281 569.117188 C 299.125 569.117188 294.769531 565.304688 293.136719 559.863281 L 317.632812 559.863281 C 315.457031 565.304688 311.101562 569.117188 305.113281 569.117188 Z M 327.429688 548.976562 L 282.25 548.976562 C 279.53125 548.976562 277.898438 546.800781 277.898438 544.621094 C 277.898438 541.898438 280.074219 540.265625 282.25 540.265625 L 327.429688 540.265625 C 330.152344 540.265625 331.785156 542.445312 331.785156 544.621094 C 332.328125 546.800781 330.152344 548.976562 327.429688 548.976562 Z M 348.660156 471.136719 C 338.316406 481.480469 332.328125 494.542969 331.785156 508.695312 L 319.808594 508.695312 L 325.253906 433.03125 C 325.253906 430.855469 324.164062 428.679688 322.53125 427.589844 C 320.355469 427.046875 318.175781 427.046875 316.542969 428.679688 L 304.023438 438.476562 L 292.050781 428.132812 C 290.417969 426.5 288.238281 426.5 286.0625 427.589844 C 283.882812 428.679688 282.796875 430.855469 283.339844 433.03125 L 288.78125 508.695312 L 278.441406 508.695312 C 277.898438 494.542969 272.453125 482.023438 262.109375 471.679688 C 245.238281 454.804688 239.792969 431.398438 247.957031 409.082031 C 255.578125 386.765625 275.175781 371.523438 298.035156 368.800781 C 329.609375 365.535156 350.292969 383.5 359.546875 402.007812 C 370.976562 425.414062 366.625 452.628906 348.660156 471.136719 Z M 348.660156 471.136719 " fill-opacity="1" fill-rule="nonzero"/><path fill="#092c66" d="M 507.0625 434.121094 C 504.339844 433.578125 501.617188 435.753906 501.074219 438.476562 C 496.175781 462.972656 482.023438 484.746094 461.882812 499.984375 C 443.917969 513.050781 422.691406 520.125 400.371094 519.582031 L 407.449219 514.140625 C 409.625 512.507812 410.714844 509.238281 408.535156 506.519531 C 406.902344 504.339844 403.636719 503.253906 400.917969 505.429688 L 381.863281 519.582031 C 380.777344 520.671875 379.6875 521.757812 379.6875 523.394531 C 379.6875 525.027344 379.6875 526.113281 380.777344 527.203125 L 394.382812 546.253906 C 396.015625 548.433594 399.28125 549.519531 402.003906 547.34375 C 404.183594 545.710938 404.726562 542.445312 403.09375 539.722656 L 396.5625 530.46875 C 398.195312 530.46875 399.828125 530.46875 401.460938 530.46875 C 425.410156 530.46875 448.816406 522.847656 468.414062 508.152344 C 491.277344 491.277344 506.515625 467.324219 511.960938 439.566406 C 511.960938 437.386719 510.328125 434.667969 507.0625 434.121094 Z M 507.0625 434.121094 " fill-opacity="1" fill-rule="nonzero"/><path fill="#092c66" d="M 357.371094 233.804688 C 355.191406 231.628906 351.925781 232.171875 349.75 234.351562 C 347.570312 236.527344 348.117188 239.792969 350.292969 241.972656 L 357.914062 249.046875 C 301.847656 254.492188 257.210938 300.757812 255.578125 357.914062 L 261.023438 357.914062 C 263.742188 357.914062 266.464844 355.738281 266.464844 353.015625 C 270.820312 303.480469 310.011719 264.289062 358.457031 259.390625 L 351.382812 267.554688 C 349.203125 269.734375 349.75 273 351.925781 275.175781 C 354.101562 277.351562 357.371094 276.808594 359.546875 274.632812 L 375.332031 257.210938 C 376.421875 256.125 376.964844 254.492188 376.964844 253.402344 C 376.964844 251.769531 376.421875 250.679688 375.332031 249.59375 Z M 357.371094 233.804688 " fill-opacity="1" fill-rule="nonzero"/></svg>