<svg xmlns="http://www.w3.org/2000/svg" xmlns:xlink="http://www.w3.org/1999/xlink" width="1080" zoomAndPan="magnify" viewBox="0 0 810 809.999993" height="1080" preserveAspectRatio="xMidYMid meet" version="1.0"><defs><clipPath id="ce34cf6107"><path d="M 96.617188 96.617188 L 713.382812 96.617188 L 713.382812 713.382812 L 96.617188 713.382812 Z M 96.617188 96.617188 " clip-rule="nonzero"/></clipPath><clipPath id="b571273c99"><path d="M 405 96.617188 C 234.683594 96.617188 96.617188 234.683594 96.617188 405 C 96.617188 575.316406 234.683594 713.382812 405 713.382812 C 575.316406 713.382812 713.382812 575.316406 713.382812 405 C 713.382812 234.683594 575.316406 96.617188 405 96.617188 Z M 405 96.617188 " clip-rule="nonzero"/></clipPath><clipPath id="65965a20db"><path d="M 197 197.667969 L 531 197.667969 L 531 410 L 197 410 Z M 197 197.667969 " clip-rule="nonzero"/></clipPath><clipPath id="7ca1f00f89"><path d="M 210 431 L 612 431 L 612 612.417969 L 210 612.417969 Z M 210 431 " clip-rule="nonzero"/></clipPath></defs><g clip-path="url(#ce34cf6107)"><g clip-path="url(#b571273c99)"><path fill="#ffffff" d="M 96.617188 96.617188 L 713.382812 96.617188 L 713.382812 713.382812 L 96.617188 713.382812 Z M 96.617188 96.617188 " fill-opacity="1" fill-rule="nonzero"/></g></g><g clip-path="url(#65965a20db)"><path fill="#092c66" d="M 214.628906 409.855469 C 216.25 409.855469 217.546875 409.207031 218.84375 408.234375 L 244.109375 386.855469 C 246.703125 384.585938 247.027344 380.375 244.757812 377.785156 C 242.492188 375.191406 238.277344 374.867188 235.6875 377.136719 L 227.265625 384.261719 C 247.996094 301.980469 321.210938 243.34375 405.4375 243.34375 C 448.847656 243.34375 489.339844 259.21875 521.410156 285.78125 L 530.804688 276.710938 C 501.652344 252.09375 466.015625 236.21875 427.140625 231.683594 L 427.140625 210.625 L 440.101562 210.625 C 443.664062 210.625 446.578125 207.710938 446.578125 204.148438 C 446.578125 200.582031 443.664062 197.667969 440.101562 197.667969 L 368.832031 197.667969 C 365.265625 197.667969 362.351562 200.582031 362.351562 204.148438 C 362.351562 207.710938 365.265625 210.625 368.832031 210.625 L 381.789062 210.625 L 381.789062 231.683594 C 301.449219 241.402344 233.742188 301.65625 214.304688 382.96875 L 209.769531 370.65625 C 208.476562 367.417969 204.910156 365.472656 201.347656 366.769531 C 198.109375 368.066406 196.164062 371.628906 197.460938 375.191406 L 208.476562 405.644531 C 209.125 407.589844 210.742188 409.207031 213.011719 409.53125 C 213.660156 409.855469 214.304688 409.855469 214.628906 409.855469 Z M 394.746094 210.625 L 414.183594 210.625 L 414.183594 230.386719 C 411.269531 230.386719 408.351562 230.0625 405.4375 230.0625 C 401.875 230.0625 398.308594 230.0625 394.746094 230.386719 Z M 394.746094 210.625 " fill-opacity="1" fill-rule="nonzero"/></g><g clip-path="url(#7ca1f00f89)"><path fill="#092c66" d="M 611.46875 466.222656 L 600.457031 435.773438 C 599.808594 433.828125 598.1875 432.207031 595.921875 431.882812 C 593.976562 431.234375 591.707031 431.882812 590.089844 433.179688 L 564.820312 454.5625 C 562.230469 456.828125 561.90625 461.039062 564.171875 463.632812 C 566.441406 466.222656 570.652344 466.546875 573.242188 464.277344 L 582.3125 456.503906 C 561.90625 539.757812 488.367188 599.042969 403.816406 599.042969 C 317 599.367188 241.195312 536.195312 223.703125 449.054688 C 223.054688 445.488281 219.488281 443.222656 215.925781 443.871094 C 212.363281 444.519531 210.09375 448.082031 210.742188 451.644531 C 229.53125 544.617188 310.84375 612.324219 403.816406 612.324219 C 494.523438 612.324219 573.566406 548.507812 594.949219 459.097656 C 594.949219 459.097656 599.160156 470.757812 599.160156 470.757812 C 600.457031 473.996094 604.34375 475.941406 607.582031 474.644531 C 610.820312 473.351562 612.765625 469.785156 611.46875 466.222656 Z M 611.46875 466.222656 " fill-opacity="1" fill-rule="nonzero"/></g><path fill="#092c66" d="M 410.945312 281.570312 L 410.945312 262.457031 C 410.945312 258.894531 408.027344 255.980469 404.464844 255.980469 C 400.902344 255.980469 397.988281 258.894531 397.988281 262.457031 L 397.988281 281.570312 C 397.988281 285.132812 400.902344 288.050781 404.464844 288.050781 C 408.027344 288.050781 410.945312 285.132812 410.945312 281.570312 Z M 410.945312 281.570312 " fill-opacity="1" fill-rule="nonzero"/><path fill="#092c66" d="M 339.027344 301.65625 L 329.308594 285.132812 C 327.367188 281.894531 323.476562 280.921875 320.5625 282.867188 C 317.324219 284.8125 316.351562 288.699219 318.292969 291.613281 C 318.292969 291.613281 328.011719 308.136719 328.011719 308.136719 C 329.632812 311.050781 333.84375 312.347656 336.761719 310.402344 C 339.675781 308.78125 340.972656 304.894531 339.027344 301.65625 Z M 339.027344 301.65625 " fill-opacity="1" fill-rule="nonzero"/><path fill="#092c66" d="M 293.351562 356.078125 C 294.96875 352.839844 294 348.953125 290.757812 347.332031 L 273.914062 337.613281 C 270.675781 335.996094 266.785156 336.964844 265.167969 340.207031 C 263.546875 343.445312 264.519531 347.332031 267.757812 348.953125 C 267.757812 348.953125 284.605469 358.671875 284.605469 358.671875 C 287.195312 360.292969 291.40625 359.320312 293.351562 356.078125 Z M 293.351562 356.078125 " fill-opacity="1" fill-rule="nonzero"/><path fill="#092c66" d="M 271.96875 421.195312 C 271.96875 417.628906 269.054688 414.714844 265.492188 414.714844 L 245.730469 414.714844 C 242.167969 414.714844 239.25 417.628906 239.25 421.195312 C 239.25 424.757812 242.167969 427.671875 245.730469 427.671875 L 265.492188 427.671875 C 269.054688 427.671875 271.96875 424.757812 271.96875 421.195312 Z M 271.96875 421.195312 " fill-opacity="1" fill-rule="nonzero"/><path fill="#092c66" d="M 262.25 503.800781 C 263.222656 503.800781 264.519531 503.476562 265.492188 502.828125 L 282.335938 493.109375 C 285.574219 491.492188 286.546875 487.28125 284.929688 484.363281 C 283.308594 481.125 279.097656 480.152344 276.179688 481.773438 L 259.335938 491.492188 C 256.097656 493.109375 255.125 497.320312 256.742188 500.238281 C 258.039062 502.503906 259.984375 503.800781 262.25 503.800781 Z M 262.25 503.800781 " fill-opacity="1" fill-rule="nonzero"/><path fill="#092c66" d="M 334.816406 536.519531 C 331.578125 534.578125 327.6875 535.871094 326.070312 538.789062 L 316.351562 555.308594 C 314.40625 558.546875 315.703125 562.4375 318.617188 564.054688 C 321.535156 566 325.746094 564.703125 327.367188 561.789062 L 337.082031 545.265625 C 339.027344 542.351562 337.730469 538.464844 334.816406 536.519531 Z M 334.816406 536.519531 " fill-opacity="1" fill-rule="nonzero"/><path fill="#092c66" d="M 404.464844 554.335938 C 400.902344 554.335938 397.988281 557.253906 397.988281 560.816406 L 397.988281 579.929688 C 397.988281 583.492188 400.902344 586.410156 404.464844 586.410156 C 408.027344 586.410156 410.945312 583.492188 410.945312 579.929688 L 410.945312 560.816406 C 410.945312 557.253906 408.027344 554.335938 404.464844 554.335938 Z M 404.464844 554.335938 " fill-opacity="1" fill-rule="nonzero"/><path fill="#092c66" d="M 468.929688 536.519531 C 465.691406 538.464844 464.71875 542.351562 466.664062 545.265625 C 466.664062 545.265625 476.382812 561.789062 476.382812 561.789062 C 478.003906 564.703125 482.214844 565.675781 485.128906 564.054688 C 488.367188 562.113281 489.339844 558.226562 487.398438 555.308594 L 477.679688 538.789062 C 476.058594 535.871094 471.847656 534.898438 468.929688 536.519531 Z M 468.929688 536.519531 " fill-opacity="1" fill-rule="nonzero"/><path fill="#092c66" d="M 519.144531 484.363281 C 517.523438 487.605469 518.496094 491.492188 521.734375 493.109375 C 521.734375 493.109375 538.582031 502.828125 538.582031 502.828125 C 541.496094 504.449219 545.707031 503.476562 547.328125 500.238281 C 548.945312 497 547.976562 493.109375 544.734375 491.492188 L 527.890625 481.773438 C 524.652344 480.152344 520.761719 481.125 519.144531 484.363281 Z M 519.144531 484.363281 " fill-opacity="1" fill-rule="nonzero"/><path fill="#092c66" d="M 569.679688 421.195312 C 569.679688 417.628906 566.765625 414.714844 563.199219 414.714844 L 543.441406 414.714844 C 539.875 414.714844 536.960938 417.628906 536.960938 421.195312 C 536.960938 424.757812 539.875 427.671875 543.441406 427.671875 L 563.199219 427.671875 C 566.765625 427.671875 569.679688 424.757812 569.679688 421.195312 Z M 569.679688 421.195312 " fill-opacity="1" fill-rule="nonzero"/><path fill="#092c66" d="M 529.511719 359.320312 C 530.480469 359.320312 531.777344 358.996094 532.75 358.347656 L 549.59375 348.628906 C 552.835938 347.007812 553.804688 342.796875 552.1875 339.882812 C 550.566406 336.644531 546.355469 335.671875 543.441406 337.289062 L 526.59375 347.007812 C 523.355469 348.628906 522.382812 352.839844 524.003906 355.757812 C 524.976562 358.347656 527.242188 359.320312 529.511719 359.320312 Z M 529.511719 359.320312 " fill-opacity="1" fill-rule="nonzero"/><path fill="#092c66" d="M 480.59375 311.375 C 482.859375 311.375 485.128906 310.078125 486.101562 308.136719 L 495.820312 291.613281 C 497.761719 288.375 496.46875 284.488281 493.550781 282.867188 C 490.3125 280.921875 486.425781 282.21875 484.804688 285.132812 L 475.085938 301.65625 C 473.144531 304.894531 474.4375 308.78125 477.355469 310.402344 C 478.324219 311.375 479.621094 311.375 480.59375 311.375 Z M 480.59375 311.375 " fill-opacity="1" fill-rule="nonzero"/><path fill="#092c66" d="M 548.300781 313.320312 C 566.441406 335.996094 579.398438 363.53125 585.554688 393.65625 C 586.203125 397.222656 589.765625 399.488281 593.328125 398.839844 C 596.890625 398.191406 599.160156 394.628906 598.511719 391.066406 C 592.03125 358.347656 577.777344 328.867188 558.019531 304.246094 Z M 548.300781 313.320312 " fill-opacity="1" fill-rule="nonzero"/><path fill="#092c66" d="M 376.605469 388.152344 C 374.015625 385.558594 369.800781 385.558594 367.535156 388.152344 C 364.945312 390.742188 364.945312 394.953125 367.535156 397.222656 L 399.929688 428.96875 C 401.226562 430.265625 402.84375 430.914062 404.464844 430.914062 C 406.085938 430.914062 407.703125 430.265625 409 428.96875 L 570.976562 273.472656 C 573.566406 270.882812 573.566406 266.992188 571.300781 264.402344 C 568.707031 261.808594 564.820312 261.808594 562.230469 264.078125 L 404.464844 415.363281 Z M 376.605469 388.152344 " fill-opacity="1" fill-rule="nonzero"/></svg>