<svg xmlns="http://www.w3.org/2000/svg" xmlns:xlink="http://www.w3.org/1999/xlink" width="1080" zoomAndPan="magnify" viewBox="0 0 810 809.999993" height="1080" preserveAspectRatio="xMidYMid meet" version="1.0"><defs><clipPath id="21907f7665"><path d="M 96.617188 96.617188 L 713.382812 96.617188 L 713.382812 713.382812 L 96.617188 713.382812 Z M 96.617188 96.617188 " clip-rule="nonzero"/></clipPath><clipPath id="98634194a2"><path d="M 405 96.617188 C 234.683594 96.617188 96.617188 234.683594 96.617188 405 C 96.617188 575.316406 234.683594 713.382812 405 713.382812 C 575.316406 713.382812 713.382812 575.316406 713.382812 405 C 713.382812 234.683594 575.316406 96.617188 405 96.617188 Z M 405 96.617188 " clip-rule="nonzero"/></clipPath></defs><g clip-path="url(#21907f7665)"><g clip-path="url(#98634194a2)"><path fill="#ffffff" d="M 96.617188 96.617188 L 713.382812 96.617188 L 713.382812 713.382812 L 96.617188 713.382812 Z M 96.617188 96.617188 " fill-opacity="1" fill-rule="nonzero"/></g></g><path fill="#092c66" d="M 371.179688 461.234375 L 305.292969 478.878906 C 302.269531 479.710938 299.84375 483.203125 299.84375 486.667969 L 299.84375 527.78125 C 299.84375 531.230469 302.269531 533.421875 305.292969 532.609375 L 371.117188 514.984375 L 371.117188 499.757812 L 316.507812 514.398438 L 316.507812 491.058594 L 371.148438 476.417969 Z M 507.394531 425.226562 C 506.738281 425.089844 506.019531 425.089844 505.261719 425.300781 L 463.195312 436.574219 L 480.855469 447.042969 L 494.125 443.46875 L 494.125 454.878906 L 510.746094 464.753906 L 510.746094 430.171875 C 510.746094 427.5625 509.382812 425.675781 507.394531 425.226562 Z M 507.394531 425.226562 " fill-opacity="1" fill-rule="evenodd"/><path fill="#092c66" d="M 302.621094 294.949219 L 248.921875 309.351562 C 226.882812 315.25 208.816406 338.050781 208.816406 360.160156 L 208.816406 575.527344 C 208.816406 597.605469 226.890625 610.769531 248.921875 604.871094 L 376.320312 570.722656 C 372.453125 565.277344 371.035156 561.230469 371.035156 555.40625 L 248.921875 588.121094 C 235.796875 591.640625 225.582031 584.109375 225.582031 571.03125 L 225.582031 355.664062 C 225.582031 342.605469 235.796875 329.621094 248.921875 326.078125 L 302.621094 311.722656 Z M 573.59375 224.164062 C 569.816406 224 565.808594 224.441406 561.691406 225.535156 L 508.007812 239.929688 L 508.007812 256.695312 L 561.691406 242.292969 C 574.792969 238.796875 585.039062 246.300781 585.039062 259.375 L 585.039062 474.738281 C 585.039062 487.792969 574.792969 500.792969 561.691406 504.320312 L 545.757812 508.574219 L 537.074219 527.667969 L 561.691406 521.050781 C 583.738281 515.15625 601.800781 492.292969 601.800781 470.242188 L 601.800781 254.878906 C 601.804688 236.914062 589.878906 224.882812 573.59375 224.164062 Z M 573.59375 224.164062 " fill-opacity="1" fill-rule="evenodd"/><path fill="#092c66" d="M 405.304688 197.257812 C 361.378906 209.003906 325.796875 254.160156 325.796875 298.042969 C 325.796875 319.121094 334.164062 337.15625 349.070312 348.0625 C 363.992188 358.964844 384.207031 361.945312 405.304688 356.296875 C 426.378906 350.636719 446.648438 336.820312 461.554688 317.9375 C 476.472656 299.003906 484.832031 276.554688 484.832031 255.4375 C 484.832031 234.347656 476.464844 216.378906 461.515625 205.449219 C 446.609375 194.542969 426.378906 191.589844 405.304688 197.257812 Z M 407.457031 229.503906 C 408.824219 229.199219 410.160156 229.035156 411.464844 228.996094 C 422.332031 228.71875 428.988281 237.933594 426.378906 249.589844 C 423.808594 261.253906 412.90625 270.957031 402.078125 271.226562 C 391.203125 271.539062 384.523438 262.320312 387.125 250.632812 C 389.347656 240.621094 397.859375 231.734375 407.457031 229.503906 Z M 386.511719 289.46875 L 424.117188 279.390625 C 432.859375 277.019531 440.710938 280.5625 443.21875 287.863281 L 446.34375 296.9375 C 449.496094 306.234375 441.605469 314.191406 430.574219 319.945312 C 413.835938 328.71875 397.175781 333.214844 380.074219 333.449219 C 369.027344 333.660156 361.085938 329.921875 364.304688 318.957031 L 367.457031 308.148438 C 369.910156 299.511719 377.761719 291.796875 386.511719 289.46875 Z M 386.511719 289.46875 " fill-opacity="1" fill-rule="evenodd"/><path fill="#092c66" d="M 507.394531 346.65625 C 506.738281 346.515625 506.019531 346.550781 505.261719 346.71875 L 305.300781 400.300781 C 302.277344 401.164062 299.847656 404.632812 299.847656 408.121094 L 299.847656 449.195312 C 299.847656 452.648438 302.277344 454.839844 305.300781 454.011719 L 373.042969 435.882812 L 381.378906 418.441406 L 316.515625 435.816406 L 316.515625 412.503906 L 494.132812 364.921875 L 494.132812 388.226562 L 416.691406 408.980469 L 434.339844 419.46875 L 505.269531 400.476562 C 508.289062 399.65625 510.753906 396.160156 510.753906 392.691406 L 510.753906 351.589844 C 510.746094 348.992188 509.382812 347.101562 507.394531 346.65625 Z M 507.394531 346.65625 " fill-opacity="1" fill-rule="evenodd"/><path fill="#092c66" d="M 409.3125 438.015625 L 512.84375 496.507812 L 485.417969 505.355469 C 481.574219 506.589844 479.820312 511.074219 481.808594 514.574219 L 511.714844 567.429688 L 479.761719 576.59375 L 445.929688 520.566406 C 444.457031 518.105469 441.46875 516.90625 438.683594 517.722656 L 409.550781 526.570312 Z M 397.339844 422.792969 L 387.195312 444.019531 C 386.8125 444.84375 386.617188 445.730469 386.617188 446.660156 L 386.480469 556.253906 C 386.40625 560.574219 390.558594 563.726562 394.671875 562.496094 L 427.40625 552.621094 L 461.253906 608.644531 C 462.761719 611.113281 465.734375 612.242188 468.554688 611.421875 L 512.90625 598.664062 C 514.664062 598.144531 516.105469 596.914062 516.886719 595.269531 L 526.785156 574.421875 C 527.917969 572.472656 527.917969 570.105469 526.785156 568.140625 L 505.46875 531.472656 L 518.671875 527.898438 C 520.382812 527.425781 521.621094 525.46875 522.335938 523.851562 L 532.375 501.714844 L 532.40625 501.675781 C 532.441406 501.640625 532.441406 501.601562 532.472656 501.542969 C 533.769531 498.792969 532.960938 495.5 530.519531 493.652344 L 406.902344 420.390625 C 402.691406 417.855469 398.917969 419.539062 397.339844 422.792969 Z M 397.339844 422.792969 " fill-opacity="1" fill-rule="nonzero"/></svg>